<svg id="gr06_black" xmlns="http://www.w3.org/2000/svg" xmlns:xlink="http://www.w3.org/1999/xlink" width="450" height="150" viewBox="0 0 450 150">
  <defs>
    <clipPath id="clip-path">
      <rect id="Rectangle_721" data-name="Rectangle 721" width="85.906" height="85.906"/>
    </clipPath>
    <clipPath id="clip-path-2">
      <rect id="Rectangle_797" data-name="Rectangle 797" width="83" height="97.188"/>
    </clipPath>
    <clipPath id="clip-path-3">
      <rect id="Rectangle_800" data-name="Rectangle 800" width="128.193" height="77.759"/>
    </clipPath>
  </defs>
  <rect id="Rectangle_732" data-name="Rectangle 732" width="150" height="150" transform="translate(300)" fill="none"/>
  <rect id="Rectangle_733" data-name="Rectangle 733" width="150" height="150" transform="translate(150)" fill="none"/>
  <g id="Group_1700" data-name="Group 1700" transform="translate(32 31.594)">
    <g id="Group_1699" data-name="Group 1699" clip-path="url(#clip-path)">
      <path id="Path_6846" data-name="Path 6846" d="M73.257,85.906H67.929V84.574h5.328Zm-10.655,0H57.274V84.574H62.6Zm-10.655,0H46.619V84.574h5.328Zm-10.655,0H35.965V84.574h5.328Zm-10.655,0H25.309V84.574h5.328Zm-10.655,0H14.655V84.574h5.328ZM9.188,85.427a12.7,12.7,0,0,1-4.895-2.673l.88-1a11.354,11.354,0,0,0,4.378,2.391Zm67.639-.033-.375-1.278a11.355,11.355,0,0,0,4.356-2.43l.889.992a12.694,12.694,0,0,1-4.871,2.716M1.02,78.241A12.557,12.557,0,0,1,0,73.257v-.473H1.332v.473a11.252,11.252,0,0,0,.912,4.459Zm83.911-.107L83.7,77.62a11.242,11.242,0,0,0,.871-4.363v-.583h1.332v.583a12.576,12.576,0,0,1-.975,4.878M1.332,67.457H0V62.129H1.332Zm84.574-.11H84.574V62.019h1.332ZM1.332,56.8H0V51.473H1.332Zm84.574-.11H84.574V51.364h1.332ZM1.332,46.147H0V40.819H1.332Zm84.574-.11H84.574V40.708h1.332ZM1.332,35.491H0V30.163H1.332Zm84.574-.11H84.574V30.054h1.332ZM1.332,24.836H0V19.509H1.332Zm84.574-.11H84.574V19.4h1.332ZM1.332,14.182H0V12.649A12.662,12.662,0,0,1,.625,8.71l1.266.414a11.3,11.3,0,0,0-.56,3.525Zm84.574-.11H84.574V12.649a11.294,11.294,0,0,0-.592-3.623L85.244,8.6a12.626,12.626,0,0,1,.662,4.048ZM4.454,4.844,3.49,3.925A12.724,12.724,0,0,1,8.128.833L8.6,2.076A11.4,11.4,0,0,0,4.454,4.844M81.38,4.77A11.391,11.391,0,0,0,77.2,2.039L77.668.791a12.731,12.731,0,0,1,4.668,3.051ZM72.2,1.332H66.87V0H72.2Zm-10.655,0H56.216V0h5.328Zm-10.655,0H45.56V0h5.328Zm-10.655,0H34.906V0h5.328Zm-10.655,0H24.25V0h5.328Zm-10.655,0H13.6V0h5.328Z" transform="translate(0)"/>
      <path id="Path_6847" data-name="Path 6847" d="M51.442,88.075H18.36A12.663,12.663,0,0,1,5.711,75.426V42.344A12.663,12.663,0,0,1,18.36,29.7H51.442A12.663,12.663,0,0,1,64.091,42.344V75.426A12.663,12.663,0,0,1,51.442,88.075M18.36,31.027A11.33,11.33,0,0,0,7.043,42.344V75.426A11.33,11.33,0,0,0,18.36,86.743H51.442A11.33,11.33,0,0,0,62.759,75.426V42.344A11.33,11.33,0,0,0,51.442,31.027Z" transform="translate(-1.271 -6.609)"/>
      <rect id="Rectangle_720" data-name="Rectangle 720" width="55.459" height="2.22" transform="translate(34.436 50.788) rotate(-45)"/>
      <path id="Path_6848" data-name="Path 6848" d="M56.438,64.23l-.079-2.22-10.937.4.4-10.939-2.22-.079-.484,13.323Z" transform="translate(-9.597 -11.438)"/>
      <path id="Path_6849" data-name="Path 6849" d="M93.639,27.029l-2.22-.079.4-10.937-10.939.4-.079-2.22,13.323-.484Z" transform="translate(-17.984 -3.051)"/>
    </g>
  </g>
  <rect id="Rectangle_734" data-name="Rectangle 734" width="150" height="150" fill="none"/>
  <g id="Group_1755" data-name="Group 1755" transform="translate(-229 -556.688)">
    <g id="Group_1750" data-name="Group 1750" transform="translate(412 577)">
      <g id="Group_1749" data-name="Group 1749" clip-path="url(#clip-path-2)">
        <path id="Path_6894" data-name="Path 6894" d="M69.448,112.83H63.741V111.4h5.708Zm-11.415,0H52.325V111.4h5.708Zm-11.415,0H40.91V111.4h5.708Zm-11.415,0H29.494V111.4H35.2Zm-11.415,0H18.079V111.4h5.708Zm-11.478-.056a13.4,13.4,0,0,1-5.683-1.845l.73-1.226a11.976,11.976,0,0,0,5.082,1.65Zm59-.071-.2-1.414a11.977,11.977,0,0,0,5-1.883L76.9,110.6a13.4,13.4,0,0,1-5.591,2.106M2.29,106.819a13.39,13.39,0,0,1-2.149-5.575l1.412-.205a11.962,11.962,0,0,0,1.922,4.985Zm78.756-.526-1.221-.74a11.96,11.96,0,0,0,1.689-5.07l1.42.14a13.4,13.4,0,0,1-1.888,5.669M1.427,95.44H0V89.733H1.427ZM83,94.848H81.573V89.141H83ZM1.427,84.025H0V78.317H1.427ZM83,83.433H81.573V77.726H83ZM1.427,72.609H0V66.9H1.427ZM83,72.018H81.573V66.31H83ZM1.427,61.194H0V55.486H1.427ZM83,60.6H81.573V54.895H83ZM1.427,49.779H0V44.071H1.427ZM83,49.187H81.573V43.479H83ZM2.338,38.763l-1.319-.544a13.651,13.651,0,0,1,3.439-4.885l.958,1.058a12.225,12.225,0,0,0-3.078,4.371m78.1-.511a12.245,12.245,0,0,0-3.275-4.225l.908-1.1a13.673,13.673,0,0,1,3.659,4.72ZM10.07,31.764,9.661,30.4a13.559,13.559,0,0,1,3.89-.567H15.52v1.427H13.552a12.148,12.148,0,0,0-3.482.507m62.323-.147a12.183,12.183,0,0,0-2.944-.36H66.889V29.83h2.559a13.612,13.612,0,0,1,3.289.4Zm-11.211-.36H55.474V29.83h5.708Zm-11.415,0H44.058V29.83h5.708Zm-11.415,0H32.643V29.83h5.708Zm-11.415,0H21.228V29.83h5.708Z" transform="translate(0 -15.642)"/>
        <path id="Path_6895" data-name="Path 6895" d="M75,103.037H49.075a9.923,9.923,0,0,1-9.911-9.911V67.2a9.922,9.922,0,0,1,9.911-9.911H75A9.922,9.922,0,0,1,84.908,67.2V93.126A9.923,9.923,0,0,1,75,103.037m-25.922-44.7A8.877,8.877,0,0,0,40.208,67.2V93.126a8.878,8.878,0,0,0,8.867,8.867H75a8.878,8.878,0,0,0,8.867-8.867V67.2A8.878,8.878,0,0,0,75,58.337Z" transform="translate(-20.536 -30.042)"/>
        <path id="Path_6896" data-name="Path 6896" d="M52.808,166.756l-1.415,1.307-.61-.729,2.145-1.775h.925v7.709H52.808Z" transform="translate(-26.628 -86.811)"/>
        <path id="Path_6897" data-name="Path 6897" d="M62.641,171.941l3.093-3.07a4.139,4.139,0,0,0,.316-.332,3.062,3.062,0,0,0,.272-.376,1.965,1.965,0,0,0,.191-.414,1.47,1.47,0,0,0,.07-.457,1.231,1.231,0,0,0-.1-.512,1.121,1.121,0,0,0-.283-.386,1.291,1.291,0,0,0-.425-.245,1.533,1.533,0,0,0-.518-.087,1.393,1.393,0,0,0-.937.316,1.433,1.433,0,0,0-.468.871l-1.133-.1a2.439,2.439,0,0,1,.3-.888,2.147,2.147,0,0,1,.555-.626,2.265,2.265,0,0,1,.763-.37,3.456,3.456,0,0,1,.931-.12,3.193,3.193,0,0,1,.942.136,2.3,2.3,0,0,1,.773.4,1.893,1.893,0,0,1,.523.664,2.148,2.148,0,0,1,.19.931,2.183,2.183,0,0,1-.114.713,3,3,0,0,1-.3.626,3.937,3.937,0,0,1-.425.555c-.16.174-.326.344-.5.512l-2.537,2.45h3.877v.915H62.641Z" transform="translate(-32.846 -86.596)"/>
        <path id="Path_6898" data-name="Path 6898" d="M75.094,169.268q0-.425.044-.882a5.647,5.647,0,0,1,.158-.9,4.762,4.762,0,0,1,.3-.844,2.509,2.509,0,0,1,.49-.7,2.276,2.276,0,0,1,.708-.479,2.614,2.614,0,0,1,1.905,0,2.3,2.3,0,0,1,.707.479,2.49,2.49,0,0,1,.49.7,4.8,4.8,0,0,1,.3.844,5.756,5.756,0,0,1,.158.9c.029.3.044.6.044.882a8.525,8.525,0,0,1-.109,1.307,4.5,4.5,0,0,1-.4,1.3,2.732,2.732,0,0,1-.811.991,2.466,2.466,0,0,1-2.668,0,2.731,2.731,0,0,1-.811-.991,4.5,4.5,0,0,1-.4-1.3,8.521,8.521,0,0,1-.108-1.307m1.045,0q0,.381.049.9a4.417,4.417,0,0,0,.213,1.008,2.193,2.193,0,0,0,.484.822,1.28,1.28,0,0,0,1.732,0,2.2,2.2,0,0,0,.484-.822,4.417,4.417,0,0,0,.213-1.008q.049-.522.049-.9,0-.261-.017-.594A5.488,5.488,0,0,0,79.27,168a4.493,4.493,0,0,0-.169-.664,2.25,2.25,0,0,0-.288-.577,1.385,1.385,0,0,0-.441-.409,1.341,1.341,0,0,0-1.241,0,1.39,1.39,0,0,0-.441.409,2.234,2.234,0,0,0-.288.577,4.436,4.436,0,0,0-.169.664,5.584,5.584,0,0,0-.076.675q-.016.332-.017.594" transform="translate(-39.376 -86.667)"/>
        <path id="Path_6899" data-name="Path 6899" d="M87.822,169.268c0-.283.015-.577.044-.882a5.647,5.647,0,0,1,.158-.9,4.763,4.763,0,0,1,.3-.844,2.509,2.509,0,0,1,.49-.7,2.276,2.276,0,0,1,.708-.479,2.614,2.614,0,0,1,1.905,0,2.292,2.292,0,0,1,.707.479,2.49,2.49,0,0,1,.49.7,4.8,4.8,0,0,1,.3.844,5.755,5.755,0,0,1,.158.9c.029.3.044.6.044.882a8.526,8.526,0,0,1-.109,1.307,4.5,4.5,0,0,1-.4,1.3,2.722,2.722,0,0,1-.811.991,2.465,2.465,0,0,1-2.667,0,2.728,2.728,0,0,1-.811-.991,4.5,4.5,0,0,1-.4-1.3,8.521,8.521,0,0,1-.108-1.307m1.045,0q0,.381.049.9a4.418,4.418,0,0,0,.213,1.008,2.2,2.2,0,0,0,.484.822,1.281,1.281,0,0,0,1.732,0,2.206,2.206,0,0,0,.484-.822,4.417,4.417,0,0,0,.213-1.008q.049-.522.049-.9,0-.261-.017-.594A5.494,5.494,0,0,0,92,168a4.494,4.494,0,0,0-.169-.664,2.251,2.251,0,0,0-.288-.577,1.385,1.385,0,0,0-.441-.409,1.34,1.34,0,0,0-1.24,0,1.387,1.387,0,0,0-.442.409,2.25,2.25,0,0,0-.288.577,4.437,4.437,0,0,0-.169.664,5.494,5.494,0,0,0-.077.675q-.016.332-.016.594" transform="translate(-46.05 -86.667)"/>
        <path id="Path_6900" data-name="Path 6900" d="M101.328,170.771h.98v.74h.022a1.859,1.859,0,0,1,.778-.642,2.4,2.4,0,0,1,1.017-.229,2.734,2.734,0,0,1,1.084.207,2.4,2.4,0,0,1,.827.577,2.609,2.609,0,0,1,.528.866,3,3,0,0,1,.185,1.061,3.032,3.032,0,0,1-.185,1.073,2.539,2.539,0,0,1-.528.86,2.431,2.431,0,0,1-.827.572,2.734,2.734,0,0,1-1.084.207,2.389,2.389,0,0,1-1.045-.234,1.784,1.784,0,0,1-.751-.636h-.022V179h-.98Zm2.678.784a1.762,1.762,0,0,0-.707.136,1.564,1.564,0,0,0-.534.37,1.638,1.638,0,0,0-.337.566,2.246,2.246,0,0,0,0,1.448,1.631,1.631,0,0,0,.337.566,1.565,1.565,0,0,0,.534.371,1.907,1.907,0,0,0,1.415,0,1.565,1.565,0,0,0,.534-.371,1.631,1.631,0,0,0,.337-.566,2.246,2.246,0,0,0,0-1.448,1.638,1.638,0,0,0-.337-.566,1.564,1.564,0,0,0-.534-.37,1.764,1.764,0,0,0-.708-.136" transform="translate(-53.132 -89.476)"/>
        <path id="Path_6901" data-name="Path 6901" d="M115.986,173.321l-1.829-2.406h1.263l1.252,1.829,1.231-1.829h1.186l-1.763,2.406,2.09,2.755h-1.263l-1.524-2.167-1.524,2.167H113.9Z" transform="translate(-59.722 -89.62)"/>
        <path id="Path_6902" data-name="Path 6902" d="M51.676,3.258h.044a1.931,1.931,0,0,1,.849-.174,2.651,2.651,0,0,1,.839.142,2.219,2.219,0,0,1,.767.441,2.3,2.3,0,0,1,.561.762,2.559,2.559,0,0,1,.217,1.094,2.792,2.792,0,0,1-.212,1.127,2.312,2.312,0,0,1-1.41,1.3,3.152,3.152,0,0,1-1.024.164,2.964,2.964,0,0,1-1.024-.175,2.49,2.49,0,0,1-.838-.5,2.423,2.423,0,0,1-.571-.784,2.39,2.39,0,0,1-.213-1.024,3.528,3.528,0,0,1,.055-.653,3.069,3.069,0,0,1,.158-.561,4.332,4.332,0,0,1,.244-.523q.142-.255.316-.539L52.384.275h1.231ZM50.707,5.6a1.763,1.763,0,0,0,.114.643,1.441,1.441,0,0,0,.327.506,1.517,1.517,0,0,0,.506.332,1.839,1.839,0,0,0,1.306,0,1.519,1.519,0,0,0,.507-.332,1.44,1.44,0,0,0,.327-.506,1.866,1.866,0,0,0,0-1.285,1.435,1.435,0,0,0-.327-.506,1.512,1.512,0,0,0-.507-.332,1.839,1.839,0,0,0-1.306,0,1.51,1.51,0,0,0-.506.332,1.436,1.436,0,0,0-.327.506,1.763,1.763,0,0,0-.114.643" transform="translate(-26.041 -0.144)"/>
        <path id="Path_6903" data-name="Path 6903" d="M62.367,3.985c0-.283.014-.577.044-.882a5.648,5.648,0,0,1,.158-.9,4.764,4.764,0,0,1,.3-.844,2.483,2.483,0,0,1,.489-.7,2.306,2.306,0,0,1,.708-.479,2.621,2.621,0,0,1,1.905,0,2.309,2.309,0,0,1,.708.479,2.464,2.464,0,0,1,.489.7,4.8,4.8,0,0,1,.306.844,5.753,5.753,0,0,1,.157.9q.044.457.044.882a8.52,8.52,0,0,1-.109,1.307,4.472,4.472,0,0,1-.4,1.3,2.722,2.722,0,0,1-.811.991,2.464,2.464,0,0,1-2.667,0,2.731,2.731,0,0,1-.811-.991,4.5,4.5,0,0,1-.4-1.3,8.516,8.516,0,0,1-.108-1.307m1.045,0c0,.254.016.555.049.9A4.429,4.429,0,0,0,63.673,5.9a2.176,2.176,0,0,0,.485.822,1.279,1.279,0,0,0,1.731,0,2.183,2.183,0,0,0,.485-.822,4.454,4.454,0,0,0,.212-1.007c.033-.349.049-.65.049-.9q0-.261-.016-.594a5.693,5.693,0,0,0-.076-.675,4.479,4.479,0,0,0-.169-.664,2.271,2.271,0,0,0-.289-.577,1.4,1.4,0,0,0-.44-.408,1.339,1.339,0,0,0-1.242,0,1.4,1.4,0,0,0-.44.408,2.255,2.255,0,0,0-.289.577,4.309,4.309,0,0,0-.168.664,5.6,5.6,0,0,0-.077.675c-.01.222-.016.42-.016.594" transform="translate(-32.702)"/>
        <path id="Path_6904" data-name="Path 6904" d="M75.094,3.985q0-.425.044-.882a5.646,5.646,0,0,1,.158-.9,4.763,4.763,0,0,1,.3-.844,2.505,2.505,0,0,1,.49-.7A2.284,2.284,0,0,1,76.8.179a2.621,2.621,0,0,1,1.905,0,2.305,2.305,0,0,1,.707.479,2.486,2.486,0,0,1,.49.7,4.8,4.8,0,0,1,.3.844,5.756,5.756,0,0,1,.158.9c.029.3.044.6.044.882A8.52,8.52,0,0,1,80.3,5.292a4.5,4.5,0,0,1-.4,1.3,2.731,2.731,0,0,1-.811.991,2.466,2.466,0,0,1-2.668,0,2.731,2.731,0,0,1-.811-.991,4.5,4.5,0,0,1-.4-1.3,8.517,8.517,0,0,1-.108-1.307m1.045,0q0,.381.049.9A4.43,4.43,0,0,0,76.4,5.9a2.186,2.186,0,0,0,.484.822,1.28,1.28,0,0,0,1.732,0A2.193,2.193,0,0,0,79.1,5.9a4.429,4.429,0,0,0,.213-1.007q.049-.523.049-.9,0-.261-.017-.594a5.5,5.5,0,0,0-.076-.675,4.479,4.479,0,0,0-.169-.664,2.269,2.269,0,0,0-.288-.577,1.389,1.389,0,0,0-.441-.408,1.337,1.337,0,0,0-1.241,0,1.394,1.394,0,0,0-.441.408,2.253,2.253,0,0,0-.288.577,4.422,4.422,0,0,0-.169.664,5.594,5.594,0,0,0-.076.675q-.016.332-.017.594" transform="translate(-39.376)"/>
        <path id="Path_6905" data-name="Path 6905" d="M87.822,3.985c0-.283.015-.577.044-.882a5.646,5.646,0,0,1,.158-.9,4.764,4.764,0,0,1,.3-.844,2.505,2.505,0,0,1,.49-.7,2.284,2.284,0,0,1,.708-.479,2.621,2.621,0,0,1,1.905,0,2.3,2.3,0,0,1,.707.479,2.486,2.486,0,0,1,.49.7,4.8,4.8,0,0,1,.3.844,5.755,5.755,0,0,1,.158.9c.029.3.044.6.044.882a8.521,8.521,0,0,1-.109,1.307,4.5,4.5,0,0,1-.4,1.3,2.722,2.722,0,0,1-.811.991,2.465,2.465,0,0,1-2.667,0,2.728,2.728,0,0,1-.811-.991,4.5,4.5,0,0,1-.4-1.3,8.517,8.517,0,0,1-.108-1.307m1.045,0q0,.381.049.9A4.43,4.43,0,0,0,89.129,5.9a2.192,2.192,0,0,0,.484.822,1.281,1.281,0,0,0,1.732,0,2.2,2.2,0,0,0,.484-.822,4.43,4.43,0,0,0,.213-1.007q.049-.523.049-.9,0-.261-.017-.594A5.5,5.5,0,0,0,92,2.716a4.48,4.48,0,0,0-.169-.664,2.27,2.27,0,0,0-.288-.577,1.389,1.389,0,0,0-.441-.408,1.336,1.336,0,0,0-1.24,0,1.391,1.391,0,0,0-.442.408,2.268,2.268,0,0,0-.288.577,4.423,4.423,0,0,0-.169.664,5.5,5.5,0,0,0-.077.675q-.016.332-.016.594" transform="translate(-46.05)"/>
        <path id="Path_6906" data-name="Path 6906" d="M101.328,5.487h.98v.741h.022a1.86,1.86,0,0,1,.778-.643,2.4,2.4,0,0,1,1.017-.229,2.743,2.743,0,0,1,1.084.207,2.4,2.4,0,0,1,.827.577,2.607,2.607,0,0,1,.528.865,3.17,3.17,0,0,1,0,2.134,2.543,2.543,0,0,1-.528.86,2.436,2.436,0,0,1-.827.571,2.734,2.734,0,0,1-1.084.207,2.4,2.4,0,0,1-1.045-.234,1.781,1.781,0,0,1-.751-.637h-.022v3.811h-.98Zm2.678.784a1.77,1.77,0,0,0-.707.136,1.577,1.577,0,0,0-.534.37,1.642,1.642,0,0,0-.337.566,2.248,2.248,0,0,0,0,1.448,1.636,1.636,0,0,0,.337.566,1.558,1.558,0,0,0,.534.37,1.907,1.907,0,0,0,1.415,0,1.557,1.557,0,0,0,.534-.37,1.635,1.635,0,0,0,.337-.566,2.248,2.248,0,0,0,0-1.448,1.642,1.642,0,0,0-.337-.566,1.577,1.577,0,0,0-.534-.37,1.772,1.772,0,0,0-.708-.136" transform="translate(-53.132 -2.808)"/>
        <path id="Path_6907" data-name="Path 6907" d="M115.986,8.038l-1.829-2.406h1.263l1.252,1.829L117.9,5.631h1.186l-1.763,2.406,2.09,2.755h-1.263l-1.524-2.167L115.1,10.793H113.9Z" transform="translate(-59.722 -2.953)"/>
      </g>
    </g>
  </g>
  <g id="Group_1756" data-name="Group 1756" transform="translate(310.904 35.026)">
    <path id="Path_6908" data-name="Path 6908" d="M139.307,93.854l-1.971-1.836-7.687,8.27V76.554h-2.691v23.739l-7.689-8.275L117.3,93.854l11,11.835Z" transform="translate(-64.688 -42.218)"/>
    <g id="Group_1753" data-name="Group 1753">
      <g id="Group_1752" data-name="Group 1752" clip-path="url(#clip-path-3)">
        <path id="Path_6909" data-name="Path 6909" d="M9.959.506h3.1a4.019,4.019,0,0,1,1.076.138,2.55,2.55,0,0,1,.857.409,1.909,1.909,0,0,1,.567.693,2.214,2.214,0,0,1,.208.989,1.821,1.821,0,0,1-.428,1.253,2.5,2.5,0,0,1-1.108.712v.026a1.875,1.875,0,0,1,.756.208,2.07,2.07,0,0,1,.611.478,2.317,2.317,0,0,1,.561,1.53,2.223,2.223,0,0,1-.246,1.064,2.289,2.289,0,0,1-.674.775,3.128,3.128,0,0,1-.995.479,4.389,4.389,0,0,1-1.222.164H9.959Zm1.209,3.7h1.65a2.843,2.843,0,0,0,.642-.069,1.433,1.433,0,0,0,.529-.233,1.186,1.186,0,0,0,.359-.416,1.317,1.317,0,0,0,.132-.617,1.355,1.355,0,0,0-.34-.919,1.347,1.347,0,0,0-1.071-.39h-1.9Zm0,4.157h1.776a3.648,3.648,0,0,0,.611-.057,1.825,1.825,0,0,0,.623-.227,1.555,1.555,0,0,0,.491-.459,1.328,1.328,0,0,0,.2-.769,1.407,1.407,0,0,0-.516-1.19,2.239,2.239,0,0,0-1.4-.4H11.168Z" transform="translate(-5.492 -0.279)"/>
        <path id="Path_6910" data-name="Path 6910" d="M27.453.506h1.8l2.834,6.751h.05L34.947.506h1.8V9.424h-1.21V2.093h-.025L32.5,9.424H31.7L28.687,2.093h-.025V9.424H27.453Z" transform="translate(-15.14 -0.279)"/>
        <path id="Path_6911" data-name="Path 6911" d="M53.093.506h3.136A3.671,3.671,0,0,1,57.64.739a2.389,2.389,0,0,1,.875.592,2.018,2.018,0,0,1,.448.806A3.2,3.2,0,0,1,59.088,3a3.2,3.2,0,0,1-.126.863,2.021,2.021,0,0,1-.448.806,2.4,2.4,0,0,1-.875.592,3.671,3.671,0,0,1-1.411.233H54.3v3.93H53.093ZM54.3,4.436h1.587a4.288,4.288,0,0,0,.7-.057,1.877,1.877,0,0,0,.617-.208,1.135,1.135,0,0,0,.434-.435A1.457,1.457,0,0,0,57.8,3a1.459,1.459,0,0,0-.164-.737,1.134,1.134,0,0,0-.434-.434,1.877,1.877,0,0,0-.617-.208,4.287,4.287,0,0,0-.7-.057H54.3Z" transform="translate(-29.28 -0.279)"/>
        <path id="Path_6912" data-name="Path 6912" d="M64.544,20.286H63.511l.869-3.1h1.209Z" transform="translate(-35.026 -9.479)"/>
        <path id="Path_6913" data-name="Path 6913" d="M87.247,4.157v4.4a4.068,4.068,0,0,1-.744.353,7.725,7.725,0,0,1-.862.258,7.274,7.274,0,0,1-.908.158,8.029,8.029,0,0,1-.862.05,5.108,5.108,0,0,1-2.022-.378,4.338,4.338,0,0,1-2.431-2.512A5.041,5.041,0,0,1,79.1,4.686a4.892,4.892,0,0,1,.346-1.852A4.57,4.57,0,0,1,80.4,1.348,4.368,4.368,0,0,1,81.868.359,4.812,4.812,0,0,1,83.745,0,5.567,5.567,0,0,1,85.76.309a3.708,3.708,0,0,1,1.309.85l-.856.919a3.168,3.168,0,0,0-1.171-.736,4.03,4.03,0,0,0-1.3-.208A3.246,3.246,0,0,0,81.3,2.179a3.371,3.371,0,0,0-.68,1.127,3.951,3.951,0,0,0-.239,1.38,3.693,3.693,0,0,0,.264,1.4,3.482,3.482,0,0,0,.73,1.127,3.384,3.384,0,0,0,1.1.749,3.446,3.446,0,0,0,1.374.271,5.946,5.946,0,0,0,1.215-.12,3.427,3.427,0,0,0,.976-.346V5.29H84.06V4.157Z" transform="translate(-43.621)"/>
        <rect id="Rectangle_798" data-name="Rectangle 798" width="1.209" height="8.918" transform="translate(45.83 0.227)"/>
        <path id="Path_6914" data-name="Path 6914" d="M109.988.506h5.605V1.639h-4.4v2.8h4.094V5.569H111.2V9.424h-1.209Z" transform="translate(-60.657 -0.279)"/>
        <path id="Path_6915" data-name="Path 6915" d="M121.523,20.286H120.49l.87-3.1h1.209Z" transform="translate(-66.448 -9.479)"/>
        <path id="Path_6916" data-name="Path 6916" d="M137.313.506h3.136a3.669,3.669,0,0,1,1.411.233,2.4,2.4,0,0,1,.876.592,2.022,2.022,0,0,1,.447.806,3.181,3.181,0,0,1,.126.863,3.186,3.186,0,0,1-.126.863,2.025,2.025,0,0,1-.447.806,2.409,2.409,0,0,1-.876.592,3.67,3.67,0,0,1-1.411.233h-1.927v3.93h-1.209Zm1.209,3.93h1.587a4.3,4.3,0,0,0,.7-.057,1.88,1.88,0,0,0,.617-.208,1.132,1.132,0,0,0,.434-.435A1.457,1.457,0,0,0,142.024,3a1.459,1.459,0,0,0-.164-.737,1.131,1.131,0,0,0-.434-.434,1.881,1.881,0,0,0-.617-.208,4.3,4.3,0,0,0-.7-.057h-1.587Z" transform="translate(-75.726 -0.279)"/>
        <path id="Path_6917" data-name="Path 6917" d="M153.965.506h1.587l4.912,7.331h.026V.506H161.7V9.424h-1.537L155.2,2.093h-.026V9.424h-1.209Z" transform="translate(-84.909 -0.279)"/>
        <path id="Path_6918" data-name="Path 6918" d="M183.232,4.157v4.4a4.065,4.065,0,0,1-.743.353,7.761,7.761,0,0,1-.863.258,7.253,7.253,0,0,1-.907.158,8.037,8.037,0,0,1-.863.05,5.107,5.107,0,0,1-2.021-.378A4.335,4.335,0,0,1,175.4,6.481a5.031,5.031,0,0,1-.321-1.795,4.892,4.892,0,0,1,.346-1.852,4.569,4.569,0,0,1,.957-1.486,4.375,4.375,0,0,1,1.468-.989A4.81,4.81,0,0,1,179.73,0a5.567,5.567,0,0,1,2.016.309,3.711,3.711,0,0,1,1.309.85l-.856.919a3.165,3.165,0,0,0-1.171-.736,4.027,4.027,0,0,0-1.3-.208,3.246,3.246,0,0,0-2.444,1.045,3.363,3.363,0,0,0-.68,1.127,3.952,3.952,0,0,0-.24,1.38,3.685,3.685,0,0,0,.265,1.4,3.482,3.482,0,0,0,.73,1.127,3.379,3.379,0,0,0,1.1.749,3.444,3.444,0,0,0,1.373.271,5.94,5.94,0,0,0,1.215-.12,3.426,3.426,0,0,0,.976-.346V5.29h-1.977V4.157Z" transform="translate(-96.556)"/>
        <path id="Path_6919" data-name="Path 6919" d="M197.991,20.286h-1.033l.87-3.1h1.209Z" transform="translate(-108.619 -9.479)"/>
        <path id="Path_6920" data-name="Path 6920" d="M213.78.506h1.209v3.7h4.623V.506h1.209V9.424h-1.209V5.342h-4.623V9.424H213.78Z" transform="translate(-117.897 -0.279)"/>
        <path id="Path_6921" data-name="Path 6921" d="M234.589.506h5.756V1.639H235.8V4.3h4.233V5.43H235.8V8.29h4.774V9.424h-5.983Z" transform="translate(-129.372 -0.279)"/>
        <rect id="Rectangle_799" data-name="Rectangle 799" width="1.209" height="8.918" transform="translate(112.912 0.227)"/>
        <path id="Path_6922" data-name="Path 6922" d="M265.083,2.154a2.5,2.5,0,0,0-.958-.756,2.858,2.858,0,0,0-1.2-.264,3.212,3.212,0,0,0-1.367.283,3.138,3.138,0,0,0-1.045.775,3.533,3.533,0,0,0-.674,1.152,4.142,4.142,0,0,0-.239,1.417A3.909,3.909,0,0,0,259.83,6.1a3.334,3.334,0,0,0,.655,1.109,3.058,3.058,0,0,0,1.045.755,3.379,3.379,0,0,0,1.4.277,2.773,2.773,0,0,0,1.348-.315,2.889,2.889,0,0,0,.983-.881l1.02.768a4.178,4.178,0,0,1-.353.4,3.537,3.537,0,0,1-.668.517,4.751,4.751,0,0,1-1,.453,4.3,4.3,0,0,1-1.354.2,4.4,4.4,0,0,1-1.908-.4,4.669,4.669,0,0,1-2.676-4.207,5.215,5.215,0,0,1,.34-1.908,4.523,4.523,0,0,1,.951-1.512,4.252,4.252,0,0,1,1.467-.989A4.921,4.921,0,0,1,262.967,0,4.633,4.633,0,0,1,264.7.34a3.234,3.234,0,0,1,1.391,1.046Z" transform="translate(-142.459)"/>
        <path id="Path_6923" data-name="Path 6923" d="M35.069,117.3H9.7a8.689,8.689,0,0,1-8.679-8.678V83.255A8.689,8.689,0,0,1,9.7,74.576H35.069V73.555H9.7a9.711,9.711,0,0,0-9.7,9.7v25.37a9.711,9.711,0,0,0,9.7,9.7H35.069a9.656,9.656,0,0,0,6.258-2.294l-.912-.574a8.636,8.636,0,0,1-5.346,1.847" transform="translate(0 -40.565)"/>
        <path id="Path_6924" data-name="Path 6924" d="M224.966,73.555H199.6v1.021h25.369a8.688,8.688,0,0,1,8.678,8.679v25.369a8.688,8.688,0,0,1-8.678,8.678H199.6a8.64,8.64,0,0,1-5.646-2.093l-.884.581a9.663,9.663,0,0,0,6.531,2.534h25.369a9.71,9.71,0,0,0,9.7-9.7V83.255a9.711,9.711,0,0,0-9.7-9.7" transform="translate(-106.473 -40.565)"/>
        <path id="Path_6925" data-name="Path 6925" d="M122.537,100.535H89.115A12.793,12.793,0,0,1,76.336,87.756V54.334A12.793,12.793,0,0,1,89.115,41.555h33.422a12.793,12.793,0,0,1,12.779,12.779V87.756a12.793,12.793,0,0,1-12.779,12.779M89.115,42.9A11.446,11.446,0,0,0,77.682,54.334V87.756A11.446,11.446,0,0,0,89.115,99.189h33.422A11.446,11.446,0,0,0,133.97,87.756V54.334A11.446,11.446,0,0,0,122.537,42.9Z" transform="translate(-42.098 -22.917)"/>
      </g>
    </g>
  </g>
</svg>
