<?xml version="1.0" encoding="UTF-8"?><svg xmlns="http://www.w3.org/2000/svg" viewBox="0 0 175.12 175.12"><defs><style>.d{fill:none;}.e{fill:#fff;}</style></defs><g id="a"/><g id="b"><g id="c"><g><g><path class="e" d="M157.99,17.95c-1.76-1.76-4.61-1.76-6.36,0l-13.9,13.9c-5.15-3.98-11.6-6.35-18.59-6.35H55.99c-16.81,0-30.49,13.68-30.49,30.49v63.14c0,16.81,13.68,30.49,30.49,30.49h63.14c16.81,0,30.49-13.68,30.49-30.49V55.99c0-6.58-2.1-12.67-5.66-17.66l14.02-14.02c1.76-1.76,1.76-4.61,0-6.36Zm-38.86,124.68h-34.64l39.61-38.89c.32-.32,.84-.32,1.16,0l17.29,17.1c-.88,12.16-11.04,21.78-23.42,21.78Zm23.49-86.63v56.48l-13.14-13c-2.64-2.62-6.95-2.62-9.59,0l-43.97,43.16h-19.93c-12.95,0-23.49-10.54-23.49-23.49V55.99c0-12.95,10.54-23.49,23.49-23.49h63.14c5.06,0,9.75,1.61,13.59,4.35l-29.03,29.03,.21-22.19c.02-2.48-1.97-4.52-4.46-4.54-2.52,.01-4.52,1.97-4.54,4.46l-.31,33.2v.08c0,.1,.02,.19,.03,.29,.01,.17,.02,.34,.05,.51,0,.02,0,.04,.01,.06,.03,.14,.08,.27,.12,.4,.04,.13,.07,.26,.12,.39,0,.02,.01,.03,.02,.04,.06,.14,.14,.26,.21,.39,.03,.05,.05,.1,.08,.14,.04,.06,.06,.13,.1,.2,0,.01,.02,.02,.02,.03,.08,.13,.19,.23,.28,.35,.09,.1,.16,.21,.26,.31v.02h.02c.1,.11,.22,.19,.33,.28,.11,.09,.2,.18,.32,.26,.01,0,.02,.02,.04,.03,.09,.06,.19,.1,.29,.15,.02,.01,.05,.03,.07,.04,.12,.07,.24,.14,.37,.2l.05,.02c.13,.05,.27,.08,.41,.13,.13,.04,.25,.09,.38,.12h.05c.18,.05,.37,.05,.56,.07,.09,0,.18,.03,.28,.03h.08l33.2-.31c2.49-.02,4.48-2.06,4.46-4.54-.02-2.47-2.03-4.46-4.5-4.46h-.04l-22.19,.21,28.87-28.87c2.33,3.65,3.69,7.98,3.69,12.62Z"/><path class="e" d="M60,72.5c-8.55,0-15.5,6.95-15.5,15.5s6.95,15.5,15.5,15.5c.14,0,.28,0,.41-.03,8.34-.23,15.07-7.09,15.08-15.48,0-8.53-6.95-15.48-15.49-15.49Zm0,24.98c-.11,0-.22,0-.32,.02-5.09-.17-9.17-4.37-9.17-9.49s4.26-9.5,9.5-9.5c5.23,0,9.49,4.26,9.49,9.49,0,5.23-4.26,9.49-9.49,9.49Z"/></g><rect class="d" width="175.12" height="175.12" rx="26.99" ry="26.99"/></g></g></g></svg>